# xmcd
#
# Track frame offsets: 
#        150
#        22202
#        41645
#        64505
#        85002
#        112362
#        132685
#        151815
#        174440
#
# Disc length: 2519 seconds
#
# Revision: 0
# Processed by: cddbd v1.5.2PL0 Copyright (c) Steve Scherf et al.
# Submitted via: ExactAudioCopy v0.99pb4
#
DISCID=7909d509
DTITLE=Frontier - You Got To Believe
DYEAR=1992
DGENRE=Hard Rock
TTITLE0=You Got To Believe
TTITLE1=Save Me
TTITLE2=Reaching
TTITLE3=I Need To Feel You
TTITLE4=Don't Look Back
TTITLE5=I'll Find Love
TTITLE6=We Can't Go On
TTITLE7=Into The Night
TTITLE8=Life Goes On
EXTD=
EXTT0=
EXTT1=
EXTT2=
EXTT3=
EXTT4=
EXTT5=
EXTT6=
EXTT7=
EXTT8=
PLAYORDER=
